<svg width="400" height="99" viewBox="0 0 400 99" fill="none" xmlns="http://www.w3.org/2000/svg">
<g clip-path="url(#clip0_2012_4)">
<rect width="400" height="99" fill="url(#paint0_linear_2012_4)"/>
<line y1="9.9" x2="400" y2="9.9" stroke="#006FFF" stroke-opacity="0.4" stroke-width="0.2"/>
<line x1="10.1" x2="10.1" y2="99" stroke="#006FFF" stroke-opacity="0.4" stroke-width="0.2"/>
<line x1="20.1" x2="20.1" y2="99" stroke="#006FFF" stroke-opacity="0.4" stroke-width="0.2"/>
<line x1="30.1" x2="30.1" y2="99" stroke="#006FFF" stroke-opacity="0.4" stroke-width="0.2"/>
<line x1="40.1" x2="40.1" y2="99" stroke="#006FFF" stroke-opacity="0.4" stroke-width="0.2"/>
<line x1="50.1" x2="50.1" y2="99" stroke="#006FFF" stroke-opacity="0.4" stroke-width="0.2"/>
<line x1="60.1" x2="60.1" y2="99" stroke="#006FFF" stroke-opacity="0.4" stroke-width="0.2"/>
<line x1="70.1" x2="70.1" y2="99" stroke="#006FFF" stroke-opacity="0.4" stroke-width="0.2"/>
<line x1="80.1" x2="80.1" y2="99" stroke="#006FFF" stroke-opacity="0.4" stroke-width="0.2"/>
<line x1="90.1" x2="90.1" y2="99" stroke="#006FFF" stroke-opacity="0.4" stroke-width="0.2"/>
<line x1="100.1" x2="100.1" y2="99" stroke="#006FFF" stroke-opacity="0.4" stroke-width="0.2"/>
<line x1="110.1" x2="110.1" y2="99" stroke="#006FFF" stroke-opacity="0.4" stroke-width="0.2"/>
<line x1="120.1" x2="120.1" y2="99" stroke="#006FFF" stroke-opacity="0.4" stroke-width="0.2"/>
<line x1="130.1" x2="130.1" y2="99" stroke="#006FFF" stroke-opacity="0.4" stroke-width="0.2"/>
<line x1="140.1" x2="140.1" y2="99" stroke="#006FFF" stroke-opacity="0.4" stroke-width="0.2"/>
<line x1="150.1" x2="150.1" y2="99" stroke="#006FFF" stroke-opacity="0.4" stroke-width="0.2"/>
<line x1="160.1" x2="160.1" y2="99" stroke="#006FFF" stroke-opacity="0.4" stroke-width="0.2"/>
<line x1="170.1" x2="170.1" y2="99" stroke="#006FFF" stroke-opacity="0.4" stroke-width="0.2"/>
<line x1="180.1" x2="180.1" y2="99" stroke="#006FFF" stroke-opacity="0.4" stroke-width="0.2"/>
<line x1="190.1" x2="190.1" y2="99" stroke="#006FFF" stroke-opacity="0.4" stroke-width="0.2"/>
<line x1="200.1" x2="200.1" y2="99" stroke="#006FFF" stroke-opacity="0.4" stroke-width="0.2"/>
<line x1="210.1" x2="210.1" y2="99" stroke="#006FFF" stroke-opacity="0.4" stroke-width="0.2"/>
<line x1="220.1" x2="220.1" y2="99" stroke="#006FFF" stroke-opacity="0.4" stroke-width="0.2"/>
<line x1="230.1" x2="230.1" y2="99" stroke="#006FFF" stroke-opacity="0.4" stroke-width="0.2"/>
<line x1="240.1" x2="240.1" y2="99" stroke="#006FFF" stroke-opacity="0.4" stroke-width="0.2"/>
<line x1="250.1" x2="250.1" y2="99" stroke="#006FFF" stroke-opacity="0.4" stroke-width="0.2"/>
<line x1="260.1" x2="260.1" y2="99" stroke="#006FFF" stroke-opacity="0.4" stroke-width="0.2"/>
<line x1="270.1" x2="270.1" y2="99" stroke="#006FFF" stroke-opacity="0.4" stroke-width="0.2"/>
<line x1="280.1" x2="280.1" y2="99" stroke="#006FFF" stroke-opacity="0.4" stroke-width="0.2"/>
<line x1="290.1" x2="290.1" y2="99" stroke="#006FFF" stroke-opacity="0.4" stroke-width="0.2"/>
<line x1="300.1" x2="300.1" y2="99" stroke="#006FFF" stroke-opacity="0.4" stroke-width="0.2"/>
<line x1="310.1" x2="310.1" y2="99" stroke="#006FFF" stroke-opacity="0.4" stroke-width="0.2"/>
<line x1="320.1" x2="320.1" y2="99" stroke="#006FFF" stroke-opacity="0.4" stroke-width="0.2"/>
<line x1="330.1" x2="330.1" y2="99" stroke="#006FFF" stroke-opacity="0.4" stroke-width="0.2"/>
<line x1="340.1" x2="340.1" y2="99" stroke="#006FFF" stroke-opacity="0.4" stroke-width="0.2"/>
<line x1="350.1" x2="350.1" y2="99" stroke="#006FFF" stroke-opacity="0.4" stroke-width="0.2"/>
<line x1="360.1" x2="360.1" y2="99" stroke="#006FFF" stroke-opacity="0.4" stroke-width="0.2"/>
<line x1="370.1" x2="370.1" y2="99" stroke="#006FFF" stroke-opacity="0.4" stroke-width="0.2"/>
<line x1="380.1" x2="380.1" y2="99" stroke="#006FFF" stroke-opacity="0.4" stroke-width="0.2"/>
<line x1="390.1" x2="390.1" y2="99" stroke="#006FFF" stroke-opacity="0.4" stroke-width="0.2"/>
<line y1="19.9" x2="400" y2="19.9" stroke="#006FFF" stroke-opacity="0.4" stroke-width="0.2"/>
<line y1="29.9" x2="400" y2="29.9" stroke="#006FFF" stroke-opacity="0.4" stroke-width="0.2"/>
<line y1="39.9" x2="400" y2="39.9" stroke="#006FFF" stroke-opacity="0.4" stroke-width="0.2"/>
<line y1="49.9" x2="400" y2="49.9" stroke="#006FFF" stroke-opacity="0.4" stroke-width="0.2"/>
<line y1="59.9" x2="400" y2="59.9" stroke="#006FFF" stroke-opacity="0.4" stroke-width="0.2"/>
<line y1="69.9" x2="400" y2="69.9" stroke="#006FFF" stroke-opacity="0.4" stroke-width="0.2"/>
<line y1="79.9" x2="400" y2="79.9" stroke="#006FFF" stroke-opacity="0.4" stroke-width="0.2"/>
<line y1="89.9" x2="400" y2="89.9" stroke="#006FFF" stroke-opacity="0.4" stroke-width="0.2"/>
<path d="M35.808 50.52H29.952L30.336 48.576H35.352L35.808 50.52ZM33 43.968L29.976 54H27.288L32.352 38.952H33.648L38.712 54H35.976L33 43.968ZM40.368 39.048H43.08H43.32V39.264C43.224 39.36 43.16 39.464 43.128 39.576C43.112 39.688 43.104 39.88 43.104 40.152V51.792H49.968V54H40.368V39.048ZM52.152 54V39.048H57.24C58.408 39.048 59.36 39.248 60.096 39.648C60.848 40.048 61.4 40.576 61.752 41.232C62.12 41.888 62.304 42.624 62.304 43.44C62.304 44.032 62.2 44.592 61.992 45.12C61.8 45.632 61.496 46.088 61.08 46.488C60.68 46.872 60.168 47.176 59.544 47.4C58.936 47.624 58.208 47.736 57.36 47.736H54.912V54H52.152ZM54.912 45.48H57.168C57.68 45.48 58.112 45.392 58.464 45.216C58.816 45.04 59.08 44.8 59.256 44.496C59.432 44.192 59.52 43.84 59.52 43.44C59.52 43.04 59.432 42.688 59.256 42.384C59.08 42.08 58.816 41.84 58.464 41.664C58.128 41.488 57.704 41.4 57.192 41.4H54.912V45.48ZM63.912 39.048H66.624H66.864V39.264C66.768 39.36 66.704 39.464 66.672 39.576C66.656 39.688 66.648 39.88 66.648 40.152V45.12H71.256V39.048H73.992H74.208V39.264C74.112 39.36 74.056 39.464 74.04 39.576C74.024 39.688 74.016 39.88 74.016 40.152V54H71.256V47.28H66.648V54H63.912V39.048ZM83.808 50.52H77.952L78.336 48.576H83.352L83.808 50.52ZM81 43.968L77.976 54H75.288L80.352 38.952H81.648L86.712 54H83.976L81 43.968Z" fill="white"/>
<path d="M93.368 39.048H96.08H96.32V39.264C96.224 39.36 96.16 39.464 96.128 39.576C96.112 39.688 96.104 39.88 96.104 40.152V51.792H102.968V54H93.368V39.048ZM112.808 50.52H106.952L107.336 48.576H112.352L112.808 50.52ZM110 43.968L106.976 54H104.288L109.352 38.952H110.648L115.712 54H112.976L110 43.968ZM116.888 54V39.048H121.448C122.344 39.048 123.12 39.144 123.776 39.336C124.432 39.512 124.976 39.768 125.408 40.104C125.856 40.424 126.184 40.816 126.392 41.28C126.616 41.744 126.728 42.256 126.728 42.816C126.728 43.232 126.648 43.656 126.488 44.088C126.328 44.52 126.088 44.912 125.768 45.264C125.448 45.6 125.064 45.864 124.616 46.056C125.016 46.232 125.384 46.448 125.72 46.704C126.056 46.96 126.344 47.248 126.584 47.568C126.824 47.872 127 48.208 127.112 48.576C127.24 48.928 127.304 49.296 127.304 49.68C127.304 50.32 127.184 50.912 126.944 51.456C126.704 51.984 126.336 52.44 125.84 52.824C125.36 53.192 124.752 53.48 124.016 53.688C123.28 53.896 122.416 54 121.424 54H116.888ZM119.6 51.768H121.712C122.288 51.768 122.784 51.688 123.2 51.528C123.616 51.352 123.936 51.104 124.16 50.784C124.384 50.464 124.496 50.072 124.496 49.608C124.496 49.128 124.392 48.712 124.184 48.36C123.976 47.992 123.64 47.704 123.176 47.496C122.712 47.288 122.088 47.184 121.304 47.184H119.6V51.768ZM119.6 45.024H121.232C121.936 45.024 122.488 44.944 122.888 44.784C123.288 44.608 123.568 44.376 123.728 44.088C123.904 43.784 123.992 43.44 123.992 43.056C123.992 42.784 123.944 42.536 123.848 42.312C123.752 42.088 123.6 41.904 123.392 41.76C123.2 41.6 122.944 41.472 122.624 41.376C122.304 41.28 121.92 41.232 121.472 41.232H119.6V45.024ZM133.808 54.264C132.816 54.264 131.88 54.12 131 53.832C130.136 53.528 129.416 53.072 128.84 52.464L130.16 50.232L130.256 50.04L130.472 50.16C130.504 50.272 130.544 50.392 130.592 50.52C130.656 50.648 130.784 50.8 130.976 50.976C131.376 51.28 131.816 51.528 132.296 51.72C132.792 51.896 133.328 51.992 133.904 52.008C134.272 52.008 134.608 51.968 134.912 51.888C135.232 51.808 135.504 51.688 135.728 51.528C135.952 51.368 136.128 51.168 136.256 50.928C136.384 50.672 136.448 50.384 136.448 50.064C136.448 49.872 136.424 49.688 136.376 49.512C136.328 49.336 136.24 49.168 136.112 49.008C136 48.832 135.832 48.664 135.608 48.504C135.384 48.328 135.104 48.144 134.768 47.952C134.432 47.744 134.008 47.528 133.496 47.304C132.472 46.856 131.656 46.4 131.048 45.936C130.456 45.472 130.032 44.976 129.776 44.448C129.52 43.92 129.392 43.32 129.392 42.648C129.392 41.912 129.592 41.256 129.992 40.68C130.408 40.104 130.976 39.648 131.696 39.312C132.416 38.976 133.24 38.808 134.168 38.808C134.792 38.808 135.376 38.88 135.92 39.024C136.464 39.168 136.968 39.384 137.432 39.672C137.896 39.944 138.32 40.296 138.704 40.728L137.12 42.552L136.976 42.72L136.784 42.576C136.768 42.448 136.736 42.328 136.688 42.216C136.656 42.088 136.552 41.928 136.376 41.736C136.072 41.448 135.744 41.256 135.392 41.16C135.056 41.064 134.656 41.016 134.192 41.016C133.856 41.016 133.56 41.056 133.304 41.136C133.048 41.216 132.824 41.328 132.632 41.472C132.456 41.616 132.312 41.784 132.2 41.976C132.104 42.152 132.056 42.336 132.056 42.528C132.056 42.72 132.08 42.904 132.128 43.08C132.176 43.24 132.256 43.4 132.368 43.56C132.496 43.72 132.672 43.888 132.896 44.064C133.136 44.224 133.44 44.4 133.808 44.592C134.176 44.784 134.632 45 135.176 45.24C135.928 45.592 136.56 45.936 137.072 46.272C137.584 46.592 137.984 46.936 138.272 47.304C138.576 47.656 138.792 48.048 138.92 48.48C139.048 48.896 139.112 49.368 139.112 49.896C139.112 50.616 138.928 51.312 138.56 51.984C138.192 52.656 137.616 53.208 136.832 53.64C136.048 54.056 135.04 54.264 133.808 54.264Z" fill="white"/>
<path d="M30.3203 60.1045H28.2939V59.5918H30.3203C30.7435 59.5918 31.0869 59.5234 31.3506 59.3867C31.6175 59.2467 31.8112 59.0579 31.9316 58.8203C32.0553 58.5827 32.1172 58.3158 32.1172 58.0195C32.1172 57.7298 32.0553 57.4629 31.9316 57.2188C31.8112 56.9746 31.6175 56.7793 31.3506 56.6328C31.0869 56.4831 30.7435 56.4082 30.3203 56.4082H28.5039V63H27.9033V55.8906H30.3203C30.8411 55.8906 31.279 55.9801 31.6338 56.1592C31.9919 56.3382 32.262 56.5872 32.4443 56.9062C32.6266 57.2253 32.7178 57.5931 32.7178 58.0098C32.7178 58.446 32.6266 58.8219 32.4443 59.1377C32.262 59.4502 31.9935 59.6895 31.6387 59.8555C31.2839 60.0215 30.8444 60.1045 30.3203 60.1045ZM34.5098 55.5V63H33.9287V55.5H34.5098ZM34.3779 60.0312L34.1191 59.8848C34.1387 59.5723 34.2021 59.2793 34.3096 59.0059C34.417 58.7324 34.5618 58.4915 34.7441 58.2832C34.9297 58.0749 35.1462 57.9121 35.3936 57.7949C35.6442 57.6777 35.9209 57.6191 36.2236 57.6191C36.4873 57.6191 36.7233 57.6549 36.9316 57.7266C37.14 57.7982 37.3174 57.9121 37.4639 58.0684C37.6104 58.2246 37.721 58.4248 37.7959 58.6689C37.874 58.9131 37.9131 59.2109 37.9131 59.5625V63H37.3271V59.5576C37.3271 59.193 37.2767 58.9082 37.1758 58.7031C37.0749 58.4948 36.9316 58.3467 36.7461 58.2588C36.5605 58.1709 36.3408 58.127 36.0869 58.127C35.807 58.127 35.5612 58.1888 35.3496 58.3125C35.1413 58.4329 34.9655 58.5908 34.8223 58.7861C34.6823 58.9782 34.5749 59.1849 34.5 59.4062C34.4251 59.6243 34.3844 59.8327 34.3779 60.0312ZM40.9844 62.4727L42.6299 57.7168H43.2598L41.0234 63.8496C40.9779 63.9701 40.9193 64.1035 40.8477 64.25C40.7793 64.3965 40.6882 64.5365 40.5742 64.6699C40.4635 64.8066 40.3236 64.9173 40.1543 65.002C39.9883 65.0898 39.7848 65.1338 39.5439 65.1338C39.4821 65.1338 39.4023 65.1257 39.3047 65.1094C39.2103 65.0964 39.1419 65.0833 39.0996 65.0703L39.0947 64.5771C39.1305 64.5869 39.1826 64.5951 39.251 64.6016C39.3193 64.6081 39.3665 64.6113 39.3926 64.6113C39.6042 64.6113 39.7816 64.5755 39.9248 64.5039C40.0713 64.4323 40.1934 64.3249 40.291 64.1816C40.3887 64.0417 40.4749 63.8659 40.5498 63.6543L40.9844 62.4727ZM39.4463 57.7168L41.1309 62.2529L41.2871 62.8633L40.8623 63.1025L38.8115 57.7168H39.4463ZM47.3369 61.6523C47.3369 61.5091 47.3011 61.3675 47.2295 61.2275C47.1579 61.0876 47.0195 60.959 46.8145 60.8418C46.6126 60.7246 46.3148 60.6253 45.9209 60.5439C45.6279 60.4788 45.3659 60.4056 45.1348 60.3242C44.9069 60.2428 44.7148 60.1452 44.5586 60.0312C44.4023 59.9173 44.2835 59.7806 44.2021 59.6211C44.1208 59.4616 44.0801 59.2728 44.0801 59.0547C44.0801 58.8594 44.1224 58.6755 44.207 58.5029C44.2949 58.3271 44.4186 58.1742 44.5781 58.0439C44.7409 57.9105 44.9362 57.8063 45.1641 57.7314C45.3952 57.6566 45.654 57.6191 45.9404 57.6191C46.3473 57.6191 46.6956 57.6891 46.9854 57.8291C47.2783 57.9658 47.5013 58.153 47.6543 58.3906C47.8105 58.6283 47.8887 58.8968 47.8887 59.1963H47.3076C47.3076 59.014 47.2539 58.8415 47.1465 58.6787C47.0423 58.516 46.8877 58.3825 46.6826 58.2783C46.4808 58.1742 46.2334 58.1221 45.9404 58.1221C45.6377 58.1221 45.3919 58.1676 45.2031 58.2588C45.0143 58.3499 44.876 58.4655 44.7881 58.6055C44.7035 58.7454 44.6611 58.8903 44.6611 59.04C44.6611 59.1572 44.679 59.2646 44.7148 59.3623C44.7539 59.4567 44.8223 59.5446 44.9199 59.626C45.0208 59.7074 45.1641 59.7839 45.3496 59.8555C45.5352 59.9271 45.776 59.9971 46.0723 60.0654C46.4987 60.1598 46.847 60.2754 47.1172 60.4121C47.3906 60.5456 47.5924 60.7116 47.7227 60.9102C47.8529 61.1055 47.918 61.3431 47.918 61.623C47.918 61.8411 47.8724 62.0413 47.7812 62.2236C47.6901 62.4027 47.5583 62.5573 47.3857 62.6875C47.2165 62.8177 47.0114 62.9186 46.7705 62.9902C46.5329 63.0618 46.266 63.0977 45.9697 63.0977C45.5238 63.0977 45.1462 63.0244 44.8369 62.8779C44.5309 62.7282 44.2982 62.5329 44.1387 62.292C43.9824 62.0479 43.9043 61.7891 43.9043 61.5156H44.4854C44.5049 61.7891 44.5911 62.0055 44.7441 62.165C44.8971 62.3213 45.0843 62.432 45.3057 62.4971C45.5303 62.5622 45.7516 62.5947 45.9697 62.5947C46.2692 62.5947 46.5199 62.5508 46.7217 62.4629C46.9235 62.375 47.0765 62.2594 47.1807 62.1162C47.2848 61.973 47.3369 61.8184 47.3369 61.6523ZM49.8906 57.7168V63H49.3096V57.7168H49.8906ZM49.207 56.1934C49.207 56.0794 49.2412 55.985 49.3096 55.9102C49.3812 55.832 49.4805 55.793 49.6074 55.793C49.7279 55.793 49.8239 55.832 49.8955 55.9102C49.9704 55.985 50.0078 56.0794 50.0078 56.1934C50.0078 56.2975 49.9704 56.3887 49.8955 56.4668C49.8239 56.5417 49.7279 56.5791 49.6074 56.5791C49.4805 56.5791 49.3812 56.5417 49.3096 56.4668C49.2412 56.3887 49.207 56.2975 49.207 56.1934ZM53.4355 62.5947C53.6829 62.5947 53.9141 62.5492 54.1289 62.458C54.347 62.3636 54.526 62.2253 54.666 62.043C54.8092 61.8574 54.8906 61.6312 54.9102 61.3643H55.4668C55.4505 61.6995 55.348 61.999 55.1592 62.2627C54.9736 62.5231 54.7295 62.7282 54.4268 62.8779C54.1273 63.0244 53.7969 63.0977 53.4355 63.0977C53.0677 63.0977 52.7422 63.0309 52.459 62.8975C52.179 62.764 51.9447 62.5785 51.7559 62.3408C51.5671 62.0999 51.4238 61.82 51.3262 61.501C51.2318 61.1787 51.1846 60.832 51.1846 60.4609V60.2559C51.1846 59.8848 51.2318 59.5397 51.3262 59.2207C51.4238 58.8984 51.5671 58.6185 51.7559 58.3809C51.9447 58.14 52.179 57.9528 52.459 57.8193C52.7389 57.6859 53.0628 57.6191 53.4307 57.6191C53.8083 57.6191 54.1468 57.6956 54.4463 57.8486C54.749 58.0016 54.9899 58.2181 55.1689 58.498C55.3512 58.778 55.4505 59.11 55.4668 59.4941H54.9102C54.8939 59.2109 54.819 58.9668 54.6855 58.7617C54.5521 58.5566 54.3763 58.3988 54.1582 58.2881C53.9401 58.1774 53.6976 58.1221 53.4307 58.1221C53.1312 58.1221 52.8757 58.1807 52.6641 58.2979C52.4525 58.4118 52.2799 58.5697 52.1465 58.7715C52.0163 58.9701 51.9202 59.1979 51.8584 59.4551C51.7965 59.709 51.7656 59.9759 51.7656 60.2559V60.4609C51.7656 60.7441 51.7949 61.0143 51.8535 61.2715C51.9154 61.5254 52.0114 61.7516 52.1416 61.9502C52.2751 62.1488 52.4476 62.3066 52.6592 62.4238C52.874 62.5378 53.1328 62.5947 53.4355 62.5947ZM59.8076 61.6523C59.8076 61.5091 59.7718 61.3675 59.7002 61.2275C59.6286 61.0876 59.4902 60.959 59.2852 60.8418C59.0833 60.7246 58.7855 60.6253 58.3916 60.5439C58.0986 60.4788 57.8366 60.4056 57.6055 60.3242C57.3776 60.2428 57.1855 60.1452 57.0293 60.0312C56.873 59.9173 56.7542 59.7806 56.6729 59.6211C56.5915 59.4616 56.5508 59.2728 56.5508 59.0547C56.5508 58.8594 56.5931 58.6755 56.6777 58.5029C56.7656 58.3271 56.8893 58.1742 57.0488 58.0439C57.2116 57.9105 57.4069 57.8063 57.6348 57.7314C57.8659 57.6566 58.1247 57.6191 58.4111 57.6191C58.818 57.6191 59.1663 57.6891 59.4561 57.8291C59.749 57.9658 59.972 58.153 60.125 58.3906C60.2812 58.6283 60.3594 58.8968 60.3594 59.1963H59.7783C59.7783 59.014 59.7246 58.8415 59.6172 58.6787C59.513 58.516 59.3584 58.3825 59.1533 58.2783C58.9515 58.1742 58.7041 58.1221 58.4111 58.1221C58.1084 58.1221 57.8626 58.1676 57.6738 58.2588C57.485 58.3499 57.3467 58.4655 57.2588 58.6055C57.1742 58.7454 57.1318 58.8903 57.1318 59.04C57.1318 59.1572 57.1497 59.2646 57.1855 59.3623C57.2246 59.4567 57.293 59.5446 57.3906 59.626C57.4915 59.7074 57.6348 59.7839 57.8203 59.8555C58.0059 59.9271 58.2467 59.9971 58.543 60.0654C58.9694 60.1598 59.3177 60.2754 59.5879 60.4121C59.8613 60.5456 60.0632 60.7116 60.1934 60.9102C60.3236 61.1055 60.3887 61.3431 60.3887 61.623C60.3887 61.8411 60.3431 62.0413 60.252 62.2236C60.1608 62.4027 60.029 62.5573 59.8564 62.6875C59.6872 62.8177 59.4821 62.9186 59.2412 62.9902C59.0036 63.0618 58.7367 63.0977 58.4404 63.0977C57.9945 63.0977 57.6169 63.0244 57.3076 62.8779C57.0016 62.7282 56.7689 62.5329 56.6094 62.292C56.4531 62.0479 56.375 61.7891 56.375 61.5156H56.9561C56.9756 61.7891 57.0618 62.0055 57.2148 62.165C57.3678 62.3213 57.555 62.432 57.7764 62.4971C58.001 62.5622 58.2223 62.5947 58.4404 62.5947C58.7399 62.5947 58.9906 62.5508 59.1924 62.4629C59.3942 62.375 59.5472 62.2594 59.6514 62.1162C59.7555 61.973 59.8076 61.8184 59.8076 61.6523ZM68.3135 61.252C68.3135 61.0566 68.2809 60.8825 68.2158 60.7295C68.1507 60.5765 68.0433 60.4398 67.8936 60.3193C67.7471 60.1956 67.5485 60.0817 67.2979 59.9775C67.0505 59.8701 66.7412 59.7643 66.3701 59.6602C66.0153 59.5592 65.6947 59.4486 65.4082 59.3281C65.1217 59.2077 64.876 59.0693 64.6709 58.9131C64.4691 58.7568 64.3145 58.5745 64.207 58.3662C64.0996 58.1546 64.0459 57.9089 64.0459 57.6289C64.0459 57.3555 64.1045 57.1064 64.2217 56.8818C64.3389 56.6572 64.5033 56.4635 64.7148 56.3008C64.9297 56.138 65.182 56.0127 65.4717 55.9248C65.7646 55.8369 66.0853 55.793 66.4336 55.793C66.9316 55.793 67.3613 55.8874 67.7227 56.0762C68.0872 56.265 68.3688 56.5205 68.5674 56.8428C68.7692 57.1618 68.8701 57.5199 68.8701 57.917H68.2695C68.2695 57.6077 68.1963 57.3327 68.0498 57.0918C67.9066 56.8477 67.6982 56.6572 67.4248 56.5205C67.1546 56.3805 66.8242 56.3105 66.4336 56.3105C66.043 56.3105 65.7142 56.3708 65.4473 56.4912C65.1836 56.6084 64.9834 56.7663 64.8467 56.9648C64.7132 57.1602 64.6465 57.3783 64.6465 57.6191C64.6465 57.7884 64.679 57.9447 64.7441 58.0879C64.8092 58.2279 64.915 58.3597 65.0615 58.4834C65.2113 58.6038 65.4082 58.7178 65.6523 58.8252C65.8965 58.9294 66.1976 59.0286 66.5557 59.123C66.9333 59.2272 67.2686 59.3428 67.5615 59.4697C67.8545 59.5967 68.1019 59.7432 68.3037 59.9092C68.5055 60.0719 68.6585 60.2624 68.7627 60.4805C68.8669 60.6986 68.9189 60.9525 68.9189 61.2422C68.9189 61.5319 68.8571 61.7923 68.7334 62.0234C68.613 62.2513 68.4421 62.445 68.2207 62.6045C68.0026 62.764 67.7438 62.8861 67.4443 62.9707C67.1481 63.0553 66.8242 63.0977 66.4727 63.0977C66.1569 63.0977 65.8428 63.057 65.5303 62.9756C65.2178 62.8942 64.9313 62.7689 64.6709 62.5996C64.4137 62.4271 64.207 62.2057 64.0508 61.9355C63.8978 61.6654 63.8213 61.3431 63.8213 60.9688H64.417C64.417 61.2682 64.4772 61.5205 64.5977 61.7256C64.7181 61.9307 64.8776 62.0967 65.0762 62.2236C65.278 62.3506 65.4993 62.4434 65.7402 62.502C65.9844 62.5573 66.2285 62.585 66.4727 62.585C66.847 62.585 67.1709 62.5296 67.4443 62.4189C67.721 62.3083 67.9342 62.1536 68.084 61.9551C68.237 61.7533 68.3135 61.5189 68.3135 61.252ZM70.7305 57.7168V63H70.1494V57.7168H70.7305ZM70.0469 56.1934C70.0469 56.0794 70.0811 55.985 70.1494 55.9102C70.221 55.832 70.3203 55.793 70.4473 55.793C70.5677 55.793 70.6637 55.832 70.7354 55.9102C70.8102 55.985 70.8477 56.0794 70.8477 56.1934C70.8477 56.2975 70.8102 56.3887 70.7354 56.4668C70.6637 56.5417 70.5677 56.5791 70.4473 56.5791C70.3203 56.5791 70.221 56.5417 70.1494 56.4668C70.0811 56.3887 70.0469 56.2975 70.0469 56.1934ZM72.8789 58.8105V63H72.293V57.7168H72.8545L72.8789 58.8105ZM72.7715 60.0312L72.4883 59.8848C72.5078 59.5723 72.5664 59.2793 72.6641 59.0059C72.765 58.7324 72.9049 58.4915 73.084 58.2832C73.263 58.0749 73.4779 57.9121 73.7285 57.7949C73.9792 57.6777 74.264 57.6191 74.583 57.6191C74.8402 57.6191 75.0729 57.6549 75.2812 57.7266C75.4928 57.7949 75.6719 57.904 75.8184 58.0537C75.9681 58.2002 76.0837 58.3923 76.165 58.6299C76.2464 58.8675 76.2871 59.1523 76.2871 59.4844V63H75.7061V59.5039C75.7061 59.1523 75.6507 58.8773 75.54 58.6787C75.4326 58.4801 75.2812 58.3385 75.0859 58.2539C74.8939 58.1693 74.6709 58.127 74.417 58.127C74.1175 58.127 73.8636 58.1888 73.6553 58.3125C73.4502 58.4329 73.2826 58.5908 73.1523 58.7861C73.0254 58.9782 72.931 59.1849 72.8691 59.4062C72.8073 59.6243 72.7747 59.8327 72.7715 60.0312ZM76.2822 59.5723L75.8916 59.582C75.9079 59.3249 75.9665 59.0791 76.0674 58.8447C76.1715 58.6104 76.3132 58.402 76.4922 58.2197C76.6712 58.0342 76.8844 57.8877 77.1318 57.7803C77.3825 57.6729 77.6641 57.6191 77.9766 57.6191C78.25 57.6191 78.4941 57.6566 78.709 57.7314C78.9238 57.8031 79.1045 57.9186 79.251 58.0781C79.4007 58.2344 79.5146 58.4346 79.5928 58.6787C79.6709 58.9229 79.71 59.2158 79.71 59.5576V63H79.124V59.5527C79.124 59.1784 79.0687 58.8887 78.958 58.6836C78.8506 58.4753 78.7008 58.3304 78.5088 58.249C78.3167 58.1676 78.0921 58.127 77.835 58.127C77.5811 58.1302 77.3581 58.1774 77.166 58.2686C76.974 58.3564 76.8128 58.4736 76.6826 58.6201C76.5557 58.7633 76.458 58.918 76.3896 59.084C76.3245 59.25 76.2887 59.4128 76.2822 59.5723ZM84.5781 61.7793V57.7168H85.1641V63H84.6025L84.5781 61.7793ZM84.6855 60.8027L84.9883 60.793C84.9883 61.125 84.9492 61.431 84.8711 61.7109C84.793 61.9909 84.6709 62.235 84.5049 62.4434C84.3389 62.6517 84.124 62.8128 83.8604 62.9268C83.5967 63.0407 83.2793 63.0977 82.9082 63.0977C82.651 63.0977 82.415 63.0618 82.2002 62.9902C81.9886 62.9154 81.8063 62.7982 81.6533 62.6387C81.5003 62.4792 81.3815 62.2725 81.2969 62.0186C81.2155 61.7646 81.1748 61.457 81.1748 61.0957V57.7168H81.7559V61.1055C81.7559 61.3887 81.7868 61.6247 81.8486 61.8135C81.9137 62.0023 82.0016 62.1536 82.1123 62.2676C82.2262 62.3815 82.3564 62.4629 82.5029 62.5117C82.6494 62.5605 82.8073 62.585 82.9766 62.585C83.4062 62.585 83.7448 62.502 83.9922 62.3359C84.2428 62.1699 84.4202 61.9518 84.5244 61.6816C84.6318 61.4082 84.6855 61.1152 84.6855 60.8027ZM87.3418 55.5V63H86.7607V55.5H87.3418ZM92.1514 62.0527V59.3281C92.1514 59.0775 92.0993 58.861 91.9951 58.6787C91.891 58.4964 91.738 58.3564 91.5361 58.2588C91.3343 58.1611 91.0853 58.1123 90.7891 58.1123C90.5156 58.1123 90.2715 58.1611 90.0566 58.2588C89.8451 58.3532 89.6774 58.4818 89.5537 58.6445C89.4333 58.804 89.373 58.9814 89.373 59.1768L88.7871 59.1719C88.7871 58.9733 88.8359 58.7812 88.9336 58.5957C89.0312 58.4102 89.1696 58.2441 89.3486 58.0977C89.5277 57.9512 89.7409 57.8356 89.9883 57.751C90.2389 57.6631 90.514 57.6191 90.8135 57.6191C91.1911 57.6191 91.5231 57.6826 91.8096 57.8096C92.0993 57.9365 92.3255 58.127 92.4883 58.3809C92.651 58.6348 92.7324 58.9538 92.7324 59.3379V61.8916C92.7324 62.0739 92.7454 62.2627 92.7715 62.458C92.8008 62.6533 92.8415 62.8145 92.8936 62.9414V63H92.2734C92.2344 62.8828 92.2035 62.7363 92.1807 62.5605C92.1611 62.3815 92.1514 62.2122 92.1514 62.0527ZM92.2881 59.9238L92.2979 60.373H91.1504C90.8509 60.373 90.5824 60.4007 90.3447 60.4561C90.1104 60.5081 89.9118 60.5863 89.749 60.6904C89.5863 60.7913 89.4609 60.9134 89.373 61.0566C89.2884 61.1999 89.2461 61.3626 89.2461 61.5449C89.2461 61.7337 89.2933 61.9062 89.3877 62.0625C89.4854 62.2188 89.6221 62.3441 89.7979 62.4385C89.9769 62.5296 90.1885 62.5752 90.4326 62.5752C90.7581 62.5752 91.0446 62.515 91.292 62.3945C91.5426 62.2741 91.7493 62.1162 91.9121 61.9209C92.0749 61.7256 92.1839 61.5124 92.2393 61.2812L92.4932 61.6182C92.4508 61.7809 92.3727 61.9486 92.2588 62.1211C92.1481 62.2904 92.0033 62.4499 91.8242 62.5996C91.6452 62.7461 91.4336 62.8665 91.1895 62.9609C90.9486 63.0521 90.6751 63.0977 90.3691 63.0977C90.0241 63.0977 89.723 63.0326 89.4658 62.9023C89.2119 62.7721 89.0133 62.5947 88.8701 62.3701C88.7301 62.1423 88.6602 61.8851 88.6602 61.5986C88.6602 61.3382 88.7155 61.1055 88.8262 60.9004C88.9368 60.6921 89.0964 60.5163 89.3047 60.373C89.5163 60.2266 89.7702 60.1159 90.0664 60.041C90.3659 59.9629 90.7012 59.9238 91.0723 59.9238H92.2881ZM96.2969 57.7168V58.1953H93.6504V57.7168H96.2969ZM94.6221 56.3594H95.2031V61.7158C95.2031 61.96 95.2357 62.1439 95.3008 62.2676C95.3659 62.3913 95.4505 62.4743 95.5547 62.5166C95.6589 62.5589 95.7712 62.5801 95.8916 62.5801C95.9795 62.5801 96.0641 62.5752 96.1455 62.5654C96.2269 62.5524 96.3001 62.5394 96.3652 62.5264L96.3896 63.0195C96.318 63.0423 96.2253 63.0602 96.1113 63.0732C95.9974 63.0895 95.8835 63.0977 95.7695 63.0977C95.5449 63.0977 95.3464 63.057 95.1738 62.9756C95.0013 62.891 94.8662 62.7477 94.7686 62.5459C94.6709 62.3408 94.6221 62.0625 94.6221 61.7109V56.3594ZM98.1719 57.7168V63H97.5908V57.7168H98.1719ZM97.4883 56.1934C97.4883 56.0794 97.5225 55.985 97.5908 55.9102C97.6624 55.832 97.7617 55.793 97.8887 55.793C98.0091 55.793 98.1051 55.832 98.1768 55.9102C98.2516 55.985 98.2891 56.0794 98.2891 56.1934C98.2891 56.2975 98.2516 56.3887 98.1768 56.4668C98.1051 56.5417 98.0091 56.5791 97.8887 56.5791C97.7617 56.5791 97.6624 56.5417 97.5908 56.4668C97.5225 56.3887 97.4883 56.2975 97.4883 56.1934ZM99.4463 60.4414V60.2803C99.4463 59.8962 99.5016 59.5413 99.6123 59.2158C99.723 58.8903 99.8809 58.6087 100.086 58.3711C100.294 58.1335 100.543 57.9495 100.833 57.8193C101.123 57.6859 101.445 57.6191 101.8 57.6191C102.158 57.6191 102.482 57.6859 102.771 57.8193C103.061 57.9495 103.31 58.1335 103.519 58.3711C103.727 58.6087 103.886 58.8903 103.997 59.2158C104.108 59.5413 104.163 59.8962 104.163 60.2803V60.4414C104.163 60.8255 104.108 61.1803 103.997 61.5059C103.886 61.8281 103.727 62.1081 103.519 62.3457C103.313 62.5833 103.066 62.7689 102.776 62.9023C102.487 63.0326 102.164 63.0977 101.81 63.0977C101.451 63.0977 101.128 63.0326 100.838 62.9023C100.548 62.7689 100.299 62.5833 100.091 62.3457C99.8825 62.1081 99.723 61.8281 99.6123 61.5059C99.5016 61.1803 99.4463 60.8255 99.4463 60.4414ZM100.027 60.2803V60.4414C100.027 60.7311 100.066 61.0062 100.145 61.2666C100.223 61.5238 100.337 61.7533 100.486 61.9551C100.636 62.1536 100.822 62.3099 101.043 62.4238C101.264 62.5378 101.52 62.5947 101.81 62.5947C102.096 62.5947 102.348 62.5378 102.566 62.4238C102.788 62.3099 102.973 62.1536 103.123 61.9551C103.273 61.7533 103.385 61.5238 103.46 61.2666C103.538 61.0062 103.577 60.7311 103.577 60.4414V60.2803C103.577 59.9938 103.538 59.722 103.46 59.4648C103.385 59.2077 103.271 58.9782 103.118 58.7764C102.968 58.5745 102.783 58.415 102.562 58.2979C102.34 58.1807 102.086 58.1221 101.8 58.1221C101.513 58.1221 101.259 58.1807 101.038 58.2979C100.82 58.415 100.634 58.5745 100.481 58.7764C100.332 58.9782 100.218 59.2077 100.14 59.4648C100.065 59.722 100.027 59.9938 100.027 60.2803ZM105.955 58.8447V63H105.374V57.7168H105.931L105.955 58.8447ZM105.823 60.0312L105.564 59.8848C105.584 59.5723 105.647 59.2793 105.755 59.0059C105.862 58.7324 106.007 58.4915 106.189 58.2832C106.375 58.0749 106.591 57.9121 106.839 57.7949C107.09 57.6777 107.366 57.6191 107.669 57.6191C107.933 57.6191 108.169 57.6549 108.377 57.7266C108.585 57.7982 108.763 57.9121 108.909 58.0684C109.056 58.2246 109.166 58.4248 109.241 58.6689C109.319 58.9131 109.358 59.2109 109.358 59.5625V63H108.772V59.5576C108.772 59.193 108.722 58.9082 108.621 58.7031C108.52 58.4948 108.377 58.3467 108.191 58.2588C108.006 58.1709 107.786 58.127 107.532 58.127C107.252 58.127 107.007 58.1888 106.795 58.3125C106.587 58.4329 106.411 58.5908 106.268 58.7861C106.128 58.9782 106.02 59.1849 105.945 59.4062C105.87 59.6243 105.83 59.8327 105.823 60.0312ZM114.036 61.6523C114.036 61.5091 114 61.3675 113.929 61.2275C113.857 61.0876 113.719 60.959 113.514 60.8418C113.312 60.7246 113.014 60.6253 112.62 60.5439C112.327 60.4788 112.065 60.4056 111.834 60.3242C111.606 60.2428 111.414 60.1452 111.258 60.0312C111.102 59.9173 110.983 59.7806 110.901 59.6211C110.82 59.4616 110.779 59.2728 110.779 59.0547C110.779 58.8594 110.822 58.6755 110.906 58.5029C110.994 58.3271 111.118 58.1742 111.277 58.0439C111.44 57.9105 111.635 57.8063 111.863 57.7314C112.094 57.6566 112.353 57.6191 112.64 57.6191C113.047 57.6191 113.395 57.6891 113.685 57.8291C113.978 57.9658 114.201 58.153 114.354 58.3906C114.51 58.6283 114.588 58.8968 114.588 59.1963H114.007C114.007 59.014 113.953 58.8415 113.846 58.6787C113.742 58.516 113.587 58.3825 113.382 58.2783C113.18 58.1742 112.933 58.1221 112.64 58.1221C112.337 58.1221 112.091 58.1676 111.902 58.2588C111.714 58.3499 111.575 58.4655 111.487 58.6055C111.403 58.7454 111.36 58.8903 111.36 59.04C111.36 59.1572 111.378 59.2646 111.414 59.3623C111.453 59.4567 111.521 59.5446 111.619 59.626C111.72 59.7074 111.863 59.7839 112.049 59.8555C112.234 59.9271 112.475 59.9971 112.771 60.0654C113.198 60.1598 113.546 60.2754 113.816 60.4121C114.09 60.5456 114.292 60.7116 114.422 60.9102C114.552 61.1055 114.617 61.3431 114.617 61.623C114.617 61.8411 114.572 62.0413 114.48 62.2236C114.389 62.4027 114.257 62.5573 114.085 62.6875C113.916 62.8177 113.711 62.9186 113.47 62.9902C113.232 63.0618 112.965 63.0977 112.669 63.0977C112.223 63.0977 111.845 63.0244 111.536 62.8779C111.23 62.7282 110.997 62.5329 110.838 62.292C110.682 62.0479 110.604 61.7891 110.604 61.5156H111.185C111.204 61.7891 111.29 62.0055 111.443 62.165C111.596 62.3213 111.784 62.432 112.005 62.4971C112.229 62.5622 112.451 62.5947 112.669 62.5947C112.968 62.5947 113.219 62.5508 113.421 62.4629C113.623 62.375 113.776 62.2594 113.88 62.1162C113.984 61.973 114.036 61.8184 114.036 61.6523Z" fill="white" fill-opacity="0.6"/>
</g>
<defs>
<linearGradient id="paint0_linear_2012_4" x1="-1.30184e-08" y1="50" x2="403" y2="50" gradientUnits="userSpaceOnUse">
<stop stop-color="#02174D"/>
<stop offset="1" stop-color="#0C162B"/>
</linearGradient>
<clipPath id="clip0_2012_4">
<rect width="400" height="99" fill="white"/>
</clipPath>
</defs>
</svg>
