<svg width="512" height="512" viewBox="0 0 512 512" fill="none" xmlns="http://www.w3.org/2000/svg">
<g clip-path="url(#clip0_5436_342)">
<circle cx="256" cy="256" r="256" fill="#D9D9D9"/>
<path fill-rule="evenodd" clip-rule="evenodd" d="M100 256.291C100 186.68 150.706 130.249 213.255 130.249C246.07 130.249 285.794 161.669 296.968 197.472L302.205 180.301C308.974 158.746 313.358 150.343 326.51 139.748C341.084 128.008 356.103 127.327 375.101 130.249C348.431 142.306 341.485 196.011 333.817 232.91C329.068 255.764 324.628 271.096 318.056 286.98C318.056 286.98 323.901 325.341 351.353 335.57C375.466 344.555 402.136 339.954 412 319.495C401.77 380.507 357.851 388.282 333.817 382.334C315.319 377.755 300.263 366.044 286.688 345.398C262.111 378.657 237.496 382.334 213.255 382.334C163.441 382.334 100 325.902 100 256.291ZM271.344 266.156C256.731 214.532 241.597 182.858 213.255 182.858C184.913 182.858 152.609 210.3 152.609 256.291C152.609 302.282 188.047 333.743 213.255 329.725C238.464 325.706 254.539 309.997 271.344 266.156Z" fill="black"/>
</g>
<defs>
<clipPath id="clip0_5436_342">
<rect width="512" height="512" fill="white"/>
</clipPath>
</defs>
</svg>
