<svg width="512" height="419" viewBox="0 0 512 419" fill="none" xmlns="http://www.w3.org/2000/svg">
<g clip-path="url(#clip0_5436_335)">
<path fill-rule="evenodd" clip-rule="evenodd" d="M0 209.229C0 94.9952 83.21 2.39072 185.855 2.39072C239.704 2.39072 304.893 53.9514 323.23 112.706L331.824 84.5273C342.932 49.1551 350.126 35.366 371.71 17.9794C395.626 -1.28661 420.272 -2.4046 451.447 2.39013C407.681 22.1761 396.283 110.307 383.7 170.86C375.907 208.364 368.621 233.524 357.835 259.591C357.835 259.591 367.428 322.541 412.478 339.328C452.047 354.073 495.813 346.522 512 312.949C495.213 413.07 423.14 425.83 383.7 416.068C353.345 408.554 328.637 389.337 306.361 355.455C266.029 410.034 225.634 416.068 185.855 416.068C104.108 416.068 0 323.463 0 209.229ZM281.18 225.417C257.199 140.701 232.365 88.7232 185.855 88.7232C139.345 88.7232 86.3325 133.757 86.3325 209.229C86.3325 284.701 144.487 336.33 185.855 329.736C227.222 323.141 253.602 297.361 281.18 225.417Z" fill="black"/>
</g>
<defs>
<clipPath id="clip0_5436_335">
<rect width="512" height="419" fill="white"/>
</clipPath>
</defs>
</svg>
